<?xml version="1.0" encoding="UTF-8" standalone="no"?>
<!-- Created with Inkscape (http://www.inkscape.org/) -->

<svg
   version="1.1"
   id="svg1"
   width="739.13025"
   height="333.9566"
   viewBox="0 0 739.13025 333.9566"
   sodipodi:docname="logo_white.svg"
   inkscape:version="1.2.1 (9c6d41e410, 2022-07-14)"
   inkscape:export-filename="logo_white.png"
   inkscape:export-xdpi="96"
   inkscape:export-ydpi="96"
   xmlns:inkscape="http://www.inkscape.org/namespaces/inkscape"
   xmlns:sodipodi="http://sodipodi.sourceforge.net/DTD/sodipodi-0.dtd"
   xmlns="http://www.w3.org/2000/svg"
   xmlns:svg="http://www.w3.org/2000/svg">
  <sodipodi:namedview
     id="namedview5"
     pagecolor="#ffffff"
     bordercolor="#000000"
     borderopacity="0.25"
     inkscape:showpageshadow="2"
     inkscape:pageopacity="0.0"
     inkscape:pagecheckerboard="0"
     inkscape:deskcolor="#d1d1d1"
     showgrid="false"
     inkscape:zoom="1.7723534"
     inkscape:cx="369.84724"
     inkscape:cy="167.00958"
     inkscape:window-width="1920"
     inkscape:window-height="991"
     inkscape:window-x="-9"
     inkscape:window-y="-9"
     inkscape:window-maximized="1"
     inkscape:current-layer="svg1" />
  <defs
     id="defs1" />
  <path
     style="display:inline;fill:#00ffff;fill-opacity:1"
     d="m 16.530995,333.06455 c -1.465542,-0.5902 -2.562638,-2.31787 -3.293561,-5.18662 -0.602803,-2.36589 -2.628735,-9.47662 -4.5020708,-15.80162 -3.659857,-12.35688 -7.506813,-26.8318 -7.506813,-28.24583 0,-0.47804 1.873243,-0.73079 4.162763,-0.56167 l 4.162762,0.3075 4.3046258,16.5 c 2.367545,9.075 4.319302,16.9125 4.337238,17.41667 0.08939,2.51263 1.521792,-1.61288 5.91549,-17.0374 l 4.808084,-16.87927 3.989634,-0.29944 3.989633,-0.29944 4.837046,16.79944 c 2.660375,9.23969 5.111626,17.12899 5.447225,17.53178 0.335598,0.40279 2.620626,-7.13464 5.077839,-16.74984 l 4.467657,-17.48218 3.75,-1.6e-4 c 2.63172,-1.1e-4 3.75,0.43795 3.75,1.46897 0,2.06747 -11.995119,45.63941 -13.171482,47.84505 -0.760205,1.42536 -1.649234,1.66823 -4.148049,1.13319 -1.749256,-0.37455 -3.324213,-0.80968 -3.499904,-0.96696 -0.637354,-0.57055 -9.141918,-30.02737 -9.160977,-31.73041 -0.02824,-2.52355 -1.699917,-2.15489 -2.267194,0.5 -1.577598,7.38325 -9.163255,31.36994 -10.114976,31.98469 -1.428304,0.92258 -2.562166,0.8702 -5.33497,-0.24645 z M 439.0491,332.71104 c -11.06045,-3.04843 -16.13226,-10.7433 -16.17374,-24.53856 -0.0306,-10.17264 2.05907,-15.87482 7.60063,-20.74031 4.85046,-4.25871 9.61433,-5.64587 17.80077,-5.18329 8.9194,0.50399 14.23422,3.9387 18.20179,11.76293 2.28278,4.50176 2.74905,6.70936 2.74442,12.99381 -0.003,4.16388 -0.45127,9.1751 -0.99602,11.13604 -1.25518,4.51834 -6.94488,11.21612 -11.21538,13.20248 -4.84841,2.25516 -12.59956,2.845 -17.96247,1.3669 z m 16.00394,-9.31618 c 8.69759,-6.37394 8.25133,-26.29826 -0.70754,-31.59039 -4.12113,-2.43441 -12.69236,-2.28439 -16.92509,0.29624 -8.02176,4.89073 -9.72678,21.42688 -2.96574,28.76323 1.25063,1.35705 3.62388,3.09229 5.27388,3.85609 3.98401,1.84423 11.93826,1.15639 15.32449,-1.32517 z M 73.228547,308.07566 v -25.05144 l 15.250001,0.27604 15.250002,0.27605 0.31336,3.25 0.31336,3.25 H 92.791908 81.228547 v 6.36071 6.36071 l 5.25,0.6306 c 2.887501,0.34683 7.866011,0.63451 11.063361,0.63929 l 5.813362,0.009 -0.31336,3.25 -0.31336,3.24969 -10.750002,0.28383 -10.750001,0.28383 v 7.46617 7.46617 h 12.063361 12.063362 l -0.31336,3.25 -0.31336,3.25 -15.750002,0.27539 -15.750001,0.2754 z m 45.000003,6.5e-4 v -25 h 11.03984 c 12.57772,0 17.75135,1.76175 20.43955,6.96015 2.2287,4.30982 1.95744,11.2148 -0.56662,14.42362 l -2.08724,2.65349 3.08724,3.51617 c 3.96215,4.51264 4.30972,11.34889 0.83723,16.46724 -3.14144,4.63038 -7.35521,5.81491 -21,5.90325 l -11.75,0.0761 z m 25.10853,15.1143 c 2.58019,-3.1864 2.37406,-6.72262 -0.56308,-9.65975 -2.14154,-2.14155 -3.35297,-2.45455 -9.5,-2.45455 h -7.04545 v 7.6093 7.6093 l 7.60853,-0.38421 c 6.50835,-0.32866 7.88203,-0.72198 9.5,-2.72009 z m -3.10853,-20.40243 c 1.97962,-0.99665 2.56428,-2.14394 2.80879,-5.51172 0.29258,-4.02972 0.12359,-4.33046 -3.21788,-5.72661 -1.93967,-0.81045 -5.79113,-1.47354 -8.55879,-1.47354 h -5.03212 v 7 7 l 5.75,-0.0147 c 3.1625,-0.008 6.875,-0.58113 8.25,-1.27339 z m 49,5.4548 c 0,-13.65834 0.18656,-25.02084 0.41457,-25.25 0.22802,-0.22917 5.74052,-0.16164 12.25,0.15006 9.29204,0.44493 12.69502,1.01622 15.83543,2.65841 8.51713,4.4538 12.51725,11.71498 12.47804,22.65059 -0.0282,7.87366 -2.39251,13.05866 -8.34285,18.29635 -5.70533,5.02204 -10.4679,6.32792 -23.07801,6.32792 h -9.55718 z m 24.06737,15.29849 c 6.5658,-3.3953 9.66806,-10.24805 8.6656,-19.14187 -0.97956,-8.69066 -6.81706,-13.31015 -17.81389,-14.09697 l -6.91908,-0.49505 v 17.4677 c 0,9.60723 0.3375,17.81044 0.75,18.22935 1.08079,1.09758 12.13937,-0.31975 15.31737,-1.96316 z m 28.93263,-15.43977 v -25.02539 h 15.5 15.5 v 3.5 3.5 h -11.5 -11.5 v 6.5 6.5 h 10.44098 c 5.74254,0 10.69054,0.40378 10.99554,0.89729 0.30501,0.49352 0.27532,2.29352 -0.066,4 l -0.62052,3.10271 h -10.375 -10.375 v 6.96826 6.96827 l 11.75,0.28173 11.75,0.28174 v 3.5 3.5 l -15.75,0.27539 -15.75,0.2754 z m 56.17732,17.22461 c -1.69177,-4.2625 -5.75623,-14.725 -9.03212,-23.25 -3.2759,-8.525 -6.27185,-16.2875 -6.65768,-17.25 -0.60768,-1.51597 -0.0812,-1.75 3.93688,-1.75 2.8155,0 4.80676,0.49125 5.06685,1.25 2.09354,6.10741 12.69061,34.25255 13.32019,35.37754 0.54111,0.96692 3.08499,-4.8633 7.67525,-17.59063 l 6.86588,-19.03691 h 4.40705 c 2.42387,0 4.25705,0.37649 4.07371,0.83664 -0.18333,0.46016 -4.38333,11.70286 -9.33333,24.98379 l -9,24.14714 -4.12337,0.0162 -4.12337,0.0162 z m 40.48935,7.08333 c -1.19261,-1.1926 -0.77775,-48.14665 0.432,-48.89431 1.29197,-0.79849 28.69787,-0.6828 30.00761,0.12667 0.49155,0.30379 0.89372,1.87579 0.89372,3.49333 v 2.94098 h -12 -12 v 6.5 6.5 h 10.94098 c 6.01754,0 11.19054,0.40378 11.49554,0.89729 0.30501,0.49352 0.27532,2.29352 -0.066,4 l -0.62052,3.10271 h -10.875 -10.875 v 7 7 h 12.03138 c 13.02544,0 13.84794,0.36039 12.55741,5.50224 l -0.62689,2.49776 h -15.31429 c -8.42285,0 -15.61428,-0.3 -15.98094,-0.66667 z m 45.33333,-24.23743 v -25.0959 h 3.5 3.5 v 20.96725 20.96725 l 11.25,0.28275 c 10.38902,0.26111 11.26957,0.43581 11.50573,2.28275 0.57413,4.49018 -0.86581,4.97991 -15.71837,5.3459 l -14.03736,0.34589 z m 100.66667,24.23743 c -0.36667,-0.36666 -0.66667,-11.61666 -0.66667,-25 v -24.33333 h 11.78811 c 10.25792,0 12.35769,0.29207 16.17601,2.25 10.88871,5.58345 10.95697,21.80375 0.11841,28.13381 -2.41467,1.41024 -5.845,2.11971 -11.74661,2.42947 l -8.33592,0.43752 v 8.3746 8.3746 h -3.33333 c -1.83334,0 -3.63334,-0.3 -4,-0.66667 z M 509.774,305.62176 c 1.75261,-1.7526 2.45017,-3.53994 2.43924,-6.25 -0.0273,-6.76116 -3.62805,-9.29545 -13.2072,-9.29545 h -6.77749 v 9 9 h 7.54545 c 6.67789,0 7.82768,-0.28222 10,-2.45455 z m 25.45455,1.84756 c 0,-22.93938 0.16478,-25.54375 1.58179,-25 0.86998,0.33385 3.05169,0.60699 4.84824,0.60699 h 3.26645 l 5.58768,14.25 c 3.07322,7.8375 6.45542,16.18711 7.51599,18.5547 l 1.92832,4.3047 2.64595,-6.3047 c 1.45528,-3.46759 4.80659,-11.7047 7.44736,-18.3047 l 4.8014,-12 5.20599,-0.30287 5.206,-0.30287 -0.26759,24.80287 -0.26758,24.80287 h -3.5 -3.5 l -0.5,-16.20324 -0.5,-16.20323 -6.88828,16.45323 c -6.88613,16.44809 -6.88929,16.45324 -10.11477,16.45324 -3.18785,0 -3.2863,-0.14668 -8.22209,-12.25 -2.74759,-6.7375 -5.59885,-13.9375 -6.33613,-16 -0.73728,-2.0625 -1.58761,-3.74994 -1.88962,-3.74986 -0.30201,7e-5 -0.50172,5.51257 -0.4438,12.25 0.0579,6.73742 -0.10382,13.93736 -0.35941,15.99986 -0.4343,3.50463 -0.68657,3.75 -3.85531,3.75 h -3.39059 z m 65,0.79905 c 0,-13.6723 0.18616,-25.04623 0.41369,-25.27539 0.22753,-0.22917 7.20253,-0.28162 15.5,-0.11656 l 15.08631,0.30011 v 3.44989 3.44989 h -11.5 -11.5 v 6.5 6.5 h 11.06037 11.06036 l -0.31036,3.75 -0.31037,3.75 -10.75,0.28383 -10.75,0.28383 v 6.96617 6.96617 h 12.06037 12.06036 l -0.31036,3.75 -0.31037,3.75 -15.75,0.27539 -15.75,0.2754 z m 46,-0.24956 v -25.0575 l 4.14892,0.3075 4.14893,0.3075 11.85107,17.41484 11.85108,17.41485 v -17.66485 -17.66484 h 4 4 v 25 25 h -3.99687 -3.99688 l -11.66159,-17.5 c -6.41388,-9.625 -12.07548,-17.5 -12.58133,-17.5 -0.50586,0 -0.81913,1.4625 -0.69617,3.25 0.12297,1.7875 0.15816,9.6625 0.0782,17.5 l -0.14536,14.25 h -3.5 -3.5 z m 67.75205,19.3075 c -0.23818,-3.1625 -0.34283,-12.275 -0.23254,-20.25 0.11028,-7.975 -0.01,-15.0625 -0.26649,-15.75 -0.31942,-0.85498 -2.96133,-1.25 -8.36001,-1.25 h -7.89301 v -3.5 -3.5 h 20.5 20.5 v 3.45956 3.45956 l -8.19781,0.29044 -8.19781,0.29044 -0.12196,8.5 c -0.0671,4.675 -0.20306,14.2375 -0.30219,21.25 l -0.18023,12.75 h -3.40745 -3.40745 z M 10.47855,244.29133 0.22855021,244.00634 0.07115821,213.79133 c -0.08657,-16.61826 -0.0954,-62.84002 -0.01962,-102.71502 0.07577,-39.875 0.1466,-81.17484 0.157392,-91.77743 l 0.01962,-19.27742994 83.74999679,0.27743 83.750003,0.27743 9.5,3.30110004 c 29.8763,10.3815299 47.23063,32.1794499 48.69321,61.1611299 0.9702,19.22481 -3.24623,35.77696 -12.21835,47.96472 l -4.39803,5.9743 5.40556,5.53671 c 12.00104,12.29221 17.10144,27.71644 16.22356,49.06204 -0.35361,8.59826 -1.10975,13.84261 -2.66736,18.5 -6.98699,20.89174 -26.14514,39.56897 -48.65472,47.43335 -13.75646,4.80622 -15.65551,4.91228 -89.383872,4.99174 -38.224998,0.0412 -74.112498,-0.0533 -79.749998,-0.21007 z m 152.36674,-8.29454 c 26.3589,-3.66618 49.3098,-21.60531 57.47022,-44.92048 2.70714,-7.7346 3.7447,-25.9985 2.01672,-35.5 -2.19183,-12.05201 -11.18614,-26.12714 -21.07503,-32.98014 l -4.12844,-2.86102 5.44861,-5.57942 c 6.50539,-6.66157 10.86676,-14.236266 13.28867,-23.079416 2.54373,-9.287914 2.55502,-33.446324 0.0189,-40.491754 -7.17952,-19.94525 -21.6149,-33.52972 -43.15639,-40.6124999 l -7,-2.30158 -79.250003,-0.3679 -79.2499968,-0.3679 V 122.0055 237.07631 H 81.156187 c 47.455693,0 76.706863,-0.38655 81.689103,-1.07952 z m -114.383073,-64.67048 0.266333,-26.75 56.5,0.38889 c 41.94751,0.28872 57.60627,0.71775 60.79509,1.6657 9.76374,2.9025 15.16602,10.22895 15.98822,21.68288 0.93843,13.07318 -3.70669,21.91887 -14.08964,26.83084 l -6.19367,2.93011 -56.76633,7.9e-4 -56.766337,7.9e-4 z M 161.4475,190.0323 c 11.485,-3.18969 17.15573,-16.92782 11.53105,-27.93556 -2.9201,-5.71477 -6.46207,-8.20057 -12.97417,-9.10547 -2.90171,-0.40321 -27.43833,-0.78178 -54.52583,-0.84126 l -49.250003,-0.10814 v 19.51722 19.51722 l 50.750003,-0.006 c 31.8246,-0.003 52.13685,-0.39074 54.46895,-1.03843 z M 49.47855,102.42112 c -0.9556,-0.39101 -1.25,-6.740676 -1.25,-26.9602 V 49.01219 l 55.75,0.28206 55.75,0.28206 4.57018,2.68678 c 13.44903,7.90657 16.77604,29.3672 6.4511,41.612384 -1.52999,1.81454 -5.08568,4.51454 -7.90154,6 l -5.11974,2.700836 -53.5,0.17814 c -29.425003,0.098 -54.0625,-0.052 -54.75,-0.33333 z m 108.0938,-8.293256 c 7.27649,-2.40146 11.6562,-9.314074 11.6562,-18.397304 0,-9.59491 -4.63841,-16.34881 -12.78105,-18.61024 -3.53651,-0.98219 -99.343233,-1.58352 -100.302283,-0.62955 -0.22917,0.22795 -0.28539,8.99683 -0.12494,19.48639 l 0.29172,19.071934 32.208271,0.26361 c 45.339642,0.37108 65.379482,0.0272 69.052082,-1.18484 z m 425.1562,149.940596 c -31.51117,-2.87795 -58.0278,-21.74248 -73.92994,-52.59543 -3.32702,-6.455 -5.66117,-13.44693 -7.64375,-22.89672 -0.46157,-2.2 -0.85881,-41.0125 -0.88276,-86.25 L 500.2285,0.07631006 h 28.42678 28.42678 L 557.4669,80.32631 c 0.35343,73.69992 0.53055,80.69447 2.17002,85.69551 3.73553,11.39486 10.29508,17.30105 22.44419,20.20866 6.32847,1.51457 11.87733,1.83157 32.17362,1.83803 30.11837,0.01 39.33588,-1.00193 47.16732,-5.17604 7.82799,-4.17228 14.93209,-11.8986 17.7838,-19.34142 l 2.28921,-5.97474 -0.0874,-74 c -0.0481,-40.7 0.22946,-76.0249999 0.61672,-78.4999999 l 0.70412,-4.50000004 h 28 28 L 739.03509,77.57631 c 0.36806,92.43667 0.1263,95.35392 -9.40598,113.5 -13.98502,26.62253 -40.01385,46.96671 -66.40061,51.89882 -6.71769,1.25565 -69.40117,2.107 -80.5,1.09333 z m 82.31095,-9.36705 c 8.99798,-2.32447 19.14593,-6.84221 26.33409,-11.72359 12.0087,-8.15496 25.78364,-24.07234 32.36736,-37.40151 7.22774,-14.63302 6.89648,-10.27641 7.4705,-98.25027 l 0.5171,-79.2502699 -21.25,2.7e-4 -21.25,2.7e-4 V 82.47098 c 0,72.03004 -0.0648,74.60437 -2.03784,80.99242 -3.71802,12.03755 -14.13573,23.21161 -26.66961,28.60588 -5.73536,2.46835 -6.12821,2.49631 -39.79255,2.83202 -35.54783,0.35448 -40.17655,-0.025 -49.24704,-4.03729 -5.23801,-2.31702 -13.69907,-9.81592 -15.91895,-14.10869 -5.39212,-10.42722 -6.26226,-25.04348 -6.30267,-105.87072 l -0.0313,-62.6917099 -20.25,-0.30829 c -11.1375,-0.16956 -20.59549,-0.16429 -21.01775,0.0117 -0.84502,0.35219 -0.71054,74.9837099 0.23279,129.1800099 l 0.60049,34.5 3.03705,7.56145 c 9.72589,24.21494 29.11996,44.76143 49.39742,52.33271 2.475,0.92412 8.55,2.55416 13.5,3.6223 8.20298,1.77009 12.32093,1.91095 46.5,1.59052 30.56944,-0.28658 38.66636,-0.65286 43.81095,-1.98188 z m -415.30756,6.14141 c -0.89606,-4.93234 -0.12571,-144.077516 0.80563,-145.516506 0.63585,-0.98245 17.55298,-1.25 79.03811,-1.25 h 78.22909 l 4.45382,-2.25 c 8.1421,-4.113264 11.41278,-12.696514 8.47846,-22.250004 -1.69343,-5.51342 -3.50064,-7.99579 -8.0085,-11.00041 -2.92773,-1.95142 -4.91001,-2.00617 -82.28362,-2.27292 l -79.28362,-0.27333 -0.96638,-2.54177 C 249.13136,50.69048 248.8497,8.2205501 249.86118,3.1631601 L 250.49381,6.3495196e-8 332.61118,0.32088006 l 82.11737,0.32089 9.47656,2.81553004 C 459.5103,13.94667 478.4249,38.39166 478.4605,73.57631 c 0.029,28.66508 -13.38917,52.71069 -37.5669,67.32059 -5.97238,3.60894 -18.41124,8.17941 -22.26084,8.17941 -2.24659,0 -3.33161,1.42115 -1.65421,2.16667 1.05101,0.46711 20.43073,23.30544 35.82263,42.21572 14.50604,17.82193 26.14008,32.03927 34.67737,42.37737 3.1625,3.82958 5.75,7.25028 5.75,7.60156 0,0.35127 -16.10364,0.63868 -35.78587,0.63868 h -35.78587 l -36.96413,-46.16106 c -20.33027,-25.38858 -37.28592,-46.65108 -37.67921,-47.25 -0.47856,-0.72875 -7.7555,-1.08894 -22,-1.08894 h -21.28492 l -0.5,47 -0.5,47 -26.20159,0.26651 -26.20159,0.26651 z m 45.49661,-49.83225 c 0,-29.84194 0.36458,-46.74697 1.03518,-48 0.98266,-1.83611 2.35284,-1.93426 27.00316,-1.93426 h 25.96797 l 37.74684,47.45049 37.74685,47.45048 26.3361,0.0495 26.33611,0.0495 -5.31568,-6.75 c -9.72297,-12.34652 -31.65772,-39.17033 -55.66314,-68.06997 -7.91273,-9.52598 -14.18008,-17.52667 -13.92744,-17.77931 0.25264,-0.25264 4.33577,-0.89982 9.07363,-1.43817 16.07709,-1.82681 27.03398,-7.16511 38.74543,-18.87715 12.84967,-12.85029 19.54569,-28.163266 20.5894,-47.08537 0.66934,-12.13498 -1.29334,-21.79239 -6.605,-32.5 C 456.55422,27.96596 444.40735,17.87776 426.5439,12.22089 411.24583,7.3764101 402.43492,6.9421001 326.22855,7.2760901 l -68.5,0.30022 -0.27022,20.7261299 -0.27021,20.72613 77.27021,0.27387 c 77.00297,0.27293 77.28405,0.28134 81.27022,2.43229 8.25732,4.45569 12.16185,10.91457 13.17831,21.79962 1.07971,11.56233 -3.62694,20.405474 -13.42,25.214354 l -5.75831,2.827606 h -36 c -19.8,0 -54.1125,0.1125 -76.25,0.25 l -40.25,0.25 v 66.83333 c 0,36.75834 0.3,67.13334 0.66667,67.5 0.36666,0.36667 8.91666,0.66667 19,0.66667 h 18.33333 z"
     id="path1" />
  <path
     style="fill:#ffffff;stroke-width:0.56511"
     d="M 49.17247,100.71635 C 48.986586,99.786932 48.659328,87.811477 48.44523,74.104233 l -0.389268,-24.922263 55.734408,0.37658 55.73442,0.37658 2.89606,1.548502 c 4.26347,2.279641 8.88981,7.118747 10.92465,11.427072 2.41534,5.113943 3.16897,9.092542 2.84441,15.016457 -0.60103,10.97047 -5.18884,17.535677 -16.07329,23.001079 l -2.9434,1.47797 H 103.34183 49.510442 Z m 101.89311,-5.620583 c 5.60474,-0.434061 7.07123,-0.756007 9.52365,-2.09078 5.86113,-3.190028 8.68682,-8.958019 8.66197,-17.681408 -0.0133,-4.682239 -0.21968,-5.806912 -1.63165,-8.893147 -1.83484,-4.010536 -4.85316,-7.038596 -8.72212,-8.750242 -2.50572,-1.108548 -4.19096,-1.17573 -42.9499,-1.712211 -24.380863,-0.337467 -44.248373,-0.358083 -50.215718,-0.05211 l -9.873877,0.506283 -0.182063,7.334881 c -0.100135,4.034184 -0.009,12.717467 0.202543,19.296185 l 0.384606,11.961305 2.618565,0.208814 c 5.788152,0.461569 86.010314,0.350549 92.183994,-0.127574 z"
     id="path180" />
  <path
     style="fill:#ffffff;stroke-width:0.56511"
     d="m 48.715161,171.38246 c 0.105659,-14.50763 0.252906,-26.44013 0.327215,-26.51666 0.334345,-0.34432 108.320054,1.08712 112.450654,1.49063 8.62522,0.84259 15.54056,5.74475 18.22491,12.91931 1.87291,5.00579 2.57529,11.6846 1.77699,16.89711 -1.38487,9.04262 -6.06076,15.02734 -15.09406,19.31905 l -4.77323,2.26776 -56.55229,1.6e-4 -56.552295,1.6e-4 z m 91.270949,19.67254 21.49957,-0.41766 3.16506,-1.54852 c 3.54373,-1.73379 6.95276,-5.26931 8.93079,-9.26218 1.12766,-2.27629 1.31892,-3.5177 1.32271,-8.5854 0.004,-5.45109 -0.12906,-6.18806 -1.6668,-9.22595 -2.14989,-4.24722 -5.56987,-7.25058 -9.73964,-8.55318 -3.01667,-0.94239 -7.12735,-1.03611 -55.30832,-1.261 l -52.049434,-0.24294 v 19.79752 19.79753 l 31.173241,-0.0403 c 17.145283,-0.0222 40.848053,-0.22823 52.672823,-0.45795 z"
     id="path182" />
  <path
     style="fill:#ffffff;stroke-width:0.56511"
     d="M 0.28211078,122.08368 V 0.1415283 L 84.210068,0.55356742 168.13803,0.96560653 175.1908,3.4851629 c 21.17903,7.5660731 34.43507,17.9553631 42.87099,33.5997151 5.31693,9.860201 7.53329,19.722659 7.51549,33.442818 -0.0235,18.09678 -4.06354,31.368564 -13.38653,43.975114 l -3.18737,4.30997 4.67518,5.09714 c 8.24927,8.99379 12.11521,15.76752 14.96006,26.21234 1.47616,5.41969 1.52529,6.07333 1.50269,19.99054 -0.0267,16.48244 -0.4712,19.04844 -4.92927,28.45952 -8.66392,18.28971 -25.1069,32.93751 -45.50747,40.53918 -7.32223,2.7284 -12.46235,3.689 -23.25092,4.34518 -5.24239,0.31885 -40.76809,0.56122 -82.68168,0.5641 l -73.48985922,0.005 z M 151.49349,236.69258 c 14.06616,-0.53331 17.82873,-1.13825 26.51841,-4.26363 17.84648,-6.41877 32.61383,-19.49047 40.12404,-35.51683 3.88734,-8.29537 5.05958,-15.12761 5.03368,-29.33832 -0.0139,-7.61417 -0.25051,-10.55937 -1.14779,-14.28489 -2.80266,-11.6368 -11.17633,-24.15302 -20.71083,-30.95669 l -3.5548,-2.53666 4.29458,-4.60406 c 5.26664,-5.64619 8.17491,-9.84131 10.96823,-15.821458 2.71981,-5.822789 3.73169,-9.801911 4.46493,-17.557915 1.22941,-13.004275 0.40638,-26.514714 -2.0057,-32.924588 C 208.43678,30.175521 194.42321,17.240284 173.21602,9.8773411 L 166.44536,7.5266305 132.59207,7.2910161 C 113.97276,7.1614279 78.109423,6.9545973 52.895772,6.8313921 L 7.0527696,6.6073826 V 121.93128 237.25517 l 65.5907564,-0.03 c 36.074914,-0.0165 71.557404,-0.25616 78.849964,-0.53265 z"
     id="path184" />
  <path
     style="fill:#ffffff;stroke-width:0.56511"
     d="m 250.38872,243.12473 c -0.5737,-1.4045 -0.34209,-139.32092 0.24201,-144.103845 l 0.44787,-3.667441 4.79588,-0.367167 c 2.63774,-0.20194 37.89267,-0.392365 78.34429,-0.423166 l 73.5484,-0.056 3.91625,-2.05793 c 6.93034,-3.641791 10.22038,-8.89624 10.17793,-16.254947 -0.0237,-4.111206 -0.82154,-7.428761 -2.65808,-11.052999 -1.43591,-2.833622 -5.10465,-6.454153 -7.49208,-7.393627 -2.85693,-1.124229 -22.37484,-1.5564 -71.48559,-1.582856 -26.998,-0.01455 -58.05932,-0.194555 -69.02516,-0.400025 l -19.93788,-0.373583 -0.637,-1.45927 C 249.8787,52.220926 249.6708,4.3880158 250.39887,1.7747589 l 0.44871,-1.61057046 81.92764,0.39622553 81.92763,0.3962255 6.48855,1.93265223 c 12.19539,3.6324698 18.71788,6.502745 27.08263,11.9179273 5.87594,3.803969 15.12246,12.957751 18.89976,18.710203 13.44833,20.480449 14.68281,51.811481 2.96993,75.377338 -7.08878,14.26235 -19.36897,26.73632 -33.01918,33.54025 -5.21252,2.59817 -15.59339,6.23737 -17.79217,6.23737 -2.17188,0 -3.21897,0.57024 -3.21897,1.75303 0,0.58744 0.21602,1.06808 0.48005,1.06808 0.50913,0 11.57472,12.74101 23.27629,26.80052 9.12296,10.96129 49.45677,60.32266 51.44636,62.96116 l 1.52716,2.02523 -15.32351,0.37271 c -8.42793,0.205 -24.37717,0.37272 -35.44276,0.37272 h -20.11924 l -37.40118,-46.79362 c -20.57064,-25.7365 -37.81782,-46.97666 -38.32707,-47.20038 -0.50925,-0.22371 -10.34173,-0.52292 -21.84997,-0.66491 l -20.92407,-0.25816 -0.37478,33.49405 c -0.20612,18.42173 -0.375,39.65112 -0.37529,47.17642 l -5.2e-4,13.68237 -18.76037,0.002 c -10.3182,10e-4 -21.99065,0.16704 -25.93878,0.3684 -6.71436,0.34245 -7.20678,0.29671 -7.617,-0.70756 z m 45.02804,-40.42813 c 0.0257,-19.00722 0.21859,-40.07426 0.42858,-46.81566 0.33227,-10.66663 0.51178,-12.38712 1.38337,-13.25921 0.926,-0.92653 2.92584,-1.01177 26.513,-1.13002 l 25.51144,-0.12789 37.52073,47.35539 37.52074,47.35539 26.72855,0.0261 c 21.29562,0.0208 26.61969,-0.11729 26.19297,-0.67921 -6.42576,-8.46164 -25.27383,-31.67634 -51.08045,-62.91449 -21.31458,-25.80072 -23.36459,-28.493 -22.07637,-28.993 0.57847,-0.22453 4.1979,-0.83221 8.04318,-1.3504 16.64696,-2.24335 26.6733,-7.13131 38.21814,-18.63176 13.85852,-13.80526 20.61688,-30.424849 20.75108,-51.029369 0.0593,-9.100877 -0.61562,-13.512824 -3.1934,-20.876198 C 460.04376,29.247115 444.32888,15.794868 419.21662,9.9708829 408.81159,7.5577699 406.35068,7.4815187 330.5833,7.2245807 L 257.74818,6.9775865 257.37715,17.594332 c -0.20407,5.839211 -0.37176,15.377366 -0.37263,21.195901 l -0.002,10.579154 43.86823,0.04386 c 58.85444,0.05885 109.8578,0.786482 112.52053,1.605256 3.09599,0.952004 8.47854,5.167502 10.50556,8.227744 3.52288,5.318567 4.27044,8.204617 4.31064,16.641551 0.0354,7.438319 -0.006,7.706658 -1.77446,11.439739 -2.32118,4.900344 -6.09754,8.581641 -11.89995,11.600384 l -4.5167,2.349849 -45.6158,5.6e-4 c -25.08868,3.2e-4 -59.5168,0.16882 -76.50692,0.37446 l -30.89113,0.37388 v 58.77911 c 0,32.32851 0.16603,62.61487 0.36895,67.30303 l 0.36894,8.52394 1.46478,0.22667 c 0.80562,0.12467 9.27219,0.26471 18.81459,0.31121 l 17.34981,0.0845 0.0468,-34.55857 z"
     id="path186" />
  <path
     style="fill:#ffffff;stroke-width:0.56511"
     d="m 577.76288,243.20527 c -26.77015,-4.20436 -49.31363,-19.8287 -64.75697,-44.88149 -4.78525,-7.76282 -8.19429,-16.03479 -10.9287,-26.51831 -0.87343,-3.34866 -0.97612,-10.96278 -1.1814,-87.595402 L 500.67099,0.28211078 h 27.87724 27.87723 l 0.37019,11.42548622 c 0.2036,6.284018 0.38459,32.499163 0.40221,58.255877 0.0365,53.296596 0.67666,89.337426 1.66876,93.942886 1.83032,8.49658 7.64412,16.26941 14.6646,19.60598 8.97438,4.26519 15.14745,4.85819 46.70156,4.48619 26.61542,-0.31377 30.70293,-0.66536 37.55925,-3.23063 9.45954,-3.53927 18.24075,-12.38777 22.27266,-22.44333 l 1.51496,-3.77831 0.30524,-77.580466 c 0.16788,-42.669255 0.51486,-78.1517389 0.77108,-78.8499631 l 0.46584,-1.26949855 h 27.48963 27.48963 l 0.37267,19.88880965 c 0.56109,29.94527 0.42568,118.128058 -0.20203,131.556908 -0.89746,19.20002 -2.18001,25.07881 -7.96297,36.49952 -13.19017,26.04915 -36.49111,45.82258 -62.10277,52.70109 -4.37385,1.17468 -7.35543,1.50065 -17.94062,1.96137 -18.45653,0.80333 -66.86103,0.63725 -72.50247,-0.24876 z m 76.88707,-7.08849 c 8.91007,-0.55547 13.45603,-1.61154 22.07008,-5.12708 10.03935,-4.09723 17.09426,-8.70567 25.39016,-16.58551 9.58018,-9.09969 17.95084,-20.45118 23.22955,-31.50169 3.39838,-7.1142 4.27972,-10.98315 5.03643,-22.10919 0.42523,-6.25226 1.53969,-105.232399 1.69132,-150.214156 l 0.01,-2.9621629 h -21.44042 -21.44042 l -0.0404,55.7168799 c -0.0222,30.644283 -0.244,64.730319 -0.49282,75.746749 -0.43494,19.25742 -0.50742,20.1991 -1.87945,24.4184 -4.87222,14.98326 -20.22937,28.53231 -34.3253,30.28393 -7.54213,0.93722 -64.0835,1.02348 -69.61777,0.10621 -9.04999,-1.49999 -16.38357,-5.43846 -22.92144,-12.30987 -9.32621,-9.802 -9.81961,-15.07274 -10.43118,-111.431727 L 549.09554,8.2672836 547.91312,7.9498418 C 547.26279,7.7752485 537.94123,7.6289329 527.19854,7.6246956 l -19.53215,-0.0077 -0.41354,12.1834034 c -0.43744,12.887191 -0.0101,76.089912 0.83723,123.810001 l 0.50618,28.50919 2.32251,5.58042 c 6.6476,15.97256 13.82622,26.66602 25.28355,37.66305 6.47205,6.21202 15.56605,12.48367 21.97355,15.15399 6.46113,2.69267 18.60699,5.59048 25.79345,6.15392 7.32838,0.57456 59.08403,0.16876 70.68063,-0.55419 z"
     id="path188" />
  <path
     style="fill:#ffffff;stroke-width:0.56511"
     d="m 714.38488,329.14052 c -0.19937,-1.90746 -0.36249,-11.14371 -0.36249,-20.525 0,-15.00716 -0.10941,-17.14771 -0.91044,-17.81251 -0.62043,-0.51491 -3.22643,-0.82775 -8.18121,-0.98213 l -7.27078,-0.22654 v -3.0365 -3.0365 h 20.02987 20.02987 v 3.01812 3.01812 l -5.50117,0.36429 c -3.02563,0.20036 -6.70718,0.3656 -8.18121,0.36721 l -2.68005,0.003 v 15.14621 c 0,8.33042 -0.16553,17.85166 -0.36785,21.15831 l -0.36786,6.0121 h -2.9371 -2.93709 z"
     id="path190" />
  <path
     style="fill:#ffffff;stroke-width:0.56511"
     d="m 646.3158,308.06497 v -24.54363 h 3.90308 3.90308 l 11.39432,16.78559 c 6.26688,9.23207 11.74663,17.15737 12.17723,17.61177 0.66867,0.70562 0.78292,-1.74392 0.78292,-16.78559 v -17.61177 h 3.66744 3.66744 v 24.54363 24.54364 l -3.80849,-0.0133 -3.8085,-0.0133 -7.8991,-11.93029 c -9.85152,-14.8791 -15.93351,-23.18218 -16.6545,-22.73659 -0.34322,0.21213 -0.55426,6.88218 -0.55426,17.51801 v 17.17546 h -3.38533 -3.38533 z"
     id="path192" />
  <path
     style="fill:#ffffff;stroke-width:0.56511"
     d="m 600.74898,307.92392 0.14699,-24.68469 4.79588,-0.18516 c 2.63773,-0.10183 9.42955,-0.0108 15.09293,0.20223 l 10.29704,0.38738 v 3.04205 3.04204 h -11.56654 -11.56654 v 6.77066 6.77066 h 11.00232 11.00232 l -0.006,1.55161 c -0.003,0.85339 -0.16358,2.50373 -0.35593,3.66744 l -0.34972,2.11583 h -10.64639 -10.64638 v 7.33488 7.33488 h 12.10418 12.10418 l -0.30319,2.96216 c -0.16675,1.62919 -0.40072,3.27954 -0.51993,3.66745 -0.16641,0.54149 -3.76001,0.70527 -15.47437,0.70527 h -15.25762 z"
     id="path194" />
  <path
     style="fill:#ffffff;stroke-width:0.56511"
     d="m 535.73701,308.51763 c 0.005,-13.28248 0.21897,-24.48158 0.47603,-24.88689 0.35948,-0.5668 1.41106,-0.63193 4.55487,-0.28211 l 4.08747,0.45482 6.06398,15.23398 c 7.16182,17.99197 8.51406,21.15831 9.036,21.15831 0.2149,0 3.66455,-8.06132 7.66589,-17.91404 4.00134,-9.85272 7.53927,-18.10057 7.86207,-18.32856 0.32279,-0.22799 2.55462,-0.41841 4.95961,-0.42316 l 4.37272,-0.009 -0.003,19.6067 c -0.002,10.78368 -0.16645,21.70137 -0.36574,24.26152 l -0.36236,4.65483 h -2.93449 -2.9345 l -0.36428,-5.50116 c -0.20036,-3.02564 -0.39714,-8.54796 -0.43729,-12.27182 -0.0401,-3.72386 -0.23189,-8.54796 -0.42609,-10.72021 l -0.35308,-3.94955 -5.30215,12.69499 c -5.76915,13.81312 -7.62119,17.80968 -8.95516,19.32458 -1.16062,1.31805 -4.21032,1.27347 -5.43468,-0.0794 -1.15436,-1.27556 -4.58226,-9.08097 -9.07135,-20.65571 -1.80531,-4.65483 -3.53972,-8.79271 -3.85425,-9.19531 -1.21467,-1.55474 -1.50204,0.99658 -1.57593,13.9912 -0.0415,7.29256 -0.23719,14.0209 -0.43493,14.95187 -0.33772,1.59002 -0.53895,1.703 -3.31857,1.8632 l -2.95904,0.17054 z"
     id="path196" />
  <path
     style="fill:#ffffff;stroke-width:0.56511"
     d="m 485.14571,331.90713 c -0.23845,-0.38582 -0.53895,-11.44885 -0.66778,-24.58452 l -0.23423,-23.88303 12.05996,0.18193 c 11.15392,0.16827 12.25304,0.27709 14.62983,1.44843 11.76197,5.79657 12.07727,22.46588 0.5363,28.35364 -2.52124,1.28624 -7.97028,2.24821 -12.76845,2.25412 -1.90073,0.002 -4.2493,0.16295 -5.21905,0.3569 l -1.7632,0.35264 v 8.11069 8.11068 h -3.06992 c -1.83846,0 -3.24383,-0.28139 -3.50346,-0.70148 z m 23.28502,-25.00546 c 3.03813,-2.27162 3.88329,-3.99164 3.87204,-7.88012 -0.0197,-6.78687 -2.95889,-8.76717 -13.62226,-9.17795 l -6.96142,-0.26818 v 9.42955 9.42955 l 7.5779,-0.18477 c 6.60038,-0.16094 7.77859,-0.33484 9.13374,-1.34808 z"
     id="path198" />
  <path
     style="fill:#ffffff;stroke-width:0.56511"
     d="m 437.92984,332.03842 c -9.07746,-3.22081 -13.39797,-9.03792 -14.40999,-19.40152 -0.64188,-6.57319 0.14232,-13.80616 1.92837,-17.786 1.86895,-4.16458 6.28485,-8.53997 10.69505,-10.59694 3.11385,-1.45234 3.90565,-1.57574 9.87388,-1.53879 8.0771,0.05 11.68379,1.25888 15.67899,5.25522 5.84962,5.85128 8.05273,13.5275 6.97366,24.29807 -0.7169,7.15557 -1.92583,9.76574 -6.81616,14.71659 -4.57264,4.62923 -7.121,5.64602 -14.99016,5.98102 -4.68702,0.19953 -6.19944,0.0425 -8.93364,-0.92765 z m 14.36176,-7.0708 c 4.85584,-1.71324 7.77304,-6.09017 8.94387,-13.41928 1.14779,-7.18489 -1.25118,-15.4784 -5.48727,-18.97015 -3.64658,-3.00581 -11.40843,-3.63772 -17.0341,-1.38677 -5.16194,2.0654 -8.49516,8.81173 -8.49516,17.19393 0,10.80766 5.9228,17.4526 15.55594,17.4526 2.22747,0 5.15999,-0.39164 6.51672,-0.87033 z"
     id="path200" />
  <path
     style="fill:#ffffff;stroke-width:0.56511"
     d="m 384.517,308.25957 v -24.73823 h 3.10321 3.10322 v 20.79598 20.79599 l 10.56399,0.40985 c 5.81019,0.22541 11.01514,0.65129 11.56654,0.94639 1.22073,0.65331 1.34107,3.46306 0.18927,4.41897 -1.20893,1.00332 -7.28869,1.62036 -18.5113,1.87873 l -10.01493,0.23056 z"
     id="path202" />
  <path
     style="fill:#ffffff;stroke-width:0.56511"
     d="m 339.37927,332.0614 c -0.72828,-0.46495 -0.83822,-3.35669 -0.78818,-20.73169 0.032,-11.10526 0.24262,-21.90521 0.46808,-23.99988 l 0.40992,-3.80849 h 14.51201 c 10.53482,0 14.69756,0.18555 15.18907,0.67706 0.37239,0.37239 0.67707,1.76884 0.67707,3.10322 v 2.42615 h -11.84866 -11.84865 v 6.70277 6.70276 l 10.71349,0.23044 c 6.94219,0.14932 10.93877,0.45572 11.35347,0.87042 0.44382,0.44382 0.48758,1.47488 0.14276,3.36384 l -0.49721,2.72386 -10.85626,0.15324 -10.85625,0.15324 v 7.26477 7.26476 l 11.54666,0.19899 c 13.46215,0.23199 13.82223,0.35827 12.9409,4.53806 l -0.51271,2.43158 -14.94959,0.13761 c -8.8162,0.0811 -15.29681,-0.0841 -15.79592,-0.40271 z"
     id="path204" />
  <path
     style="fill:#ffffff;stroke-width:0.56511"
     d="m 301.07131,331.36392 c -0.27282,-0.71187 -2.96469,-7.6418 -5.98191,-15.39984 -9.14729,-23.51998 -12.13229,-31.37365 -12.13229,-31.92063 0,-0.62162 6.75899,-0.69166 7.72084,-0.08 0.36744,0.23366 3.33386,7.52939 6.59204,16.21273 3.25819,8.68335 6.35281,16.8035 6.87695,18.04479 l 0.95298,2.25689 0.9183,-1.36876 c 0.50507,-0.75281 1.51155,-2.78401 2.23662,-4.51377 1.21339,-2.89474 11.37668,-30.4973 11.37668,-30.89803 0,-0.0968 1.80482,-0.17595 4.01071,-0.17595 3.88357,0 3.99997,0.0402 3.67171,1.26949 -0.18646,0.69823 -4.23211,11.67939 -8.99035,24.40259 l -8.65134,23.13308 -4.05244,0.16587 c -3.77893,0.15467 -4.08593,0.0785 -4.5485,-1.12845 z"
     id="path206" />
  <path
     style="fill:#ffffff;stroke-width:0.56511"
     d="m 242.33316,308.07404 v -24.5527 h 15.23398 15.23399 v 3.10321 3.10322 h -11.28444 -11.28443 v 6.70067 6.70067 l 10.15646,0.23972 c 6.35256,0.14994 10.39014,0.47341 10.78039,0.86367 0.40315,0.40314 0.48408,1.64089 0.2287,3.49771 l -0.39524,2.87376 h -10.38515 -10.38516 v 7.26602 7.26601 l 11.59282,0.41399 11.59282,0.41398 -0.16733,3.18126 -0.16733,3.18127 -15.37504,0.15012 -15.37504,0.15013 z"
     id="path208" />
  <path
     style="fill:#ffffff;stroke-width:0.56511"
     d="m 189.29633,318.0293 c 0,-8.01862 0.16759,-19.206 0.37242,-24.86083 l 0.37242,-10.28152 7.94985,0.35557 c 15.33477,0.68586 19.45734,1.75943 24.71471,6.436 6.60983,5.87964 9.09158,18.4081 5.52172,27.87498 -1.68318,4.46359 -6.84013,9.95311 -11.48392,12.22452 -4.74722,2.322 -8.07064,2.83059 -18.49666,2.83059 h -8.95054 z m 20.02987,6.90766 c 5.54321,-1.16335 8.64778,-3.54039 11.08205,-8.4851 1.72024,-3.49431 1.87063,-4.22603 1.83283,-8.91788 -0.0938,-11.64294 -5.65826,-16.60997 -19.71475,-17.59804 l -5.33089,-0.37473 0.008,16.86888 c 0.004,9.27787 0.15724,17.42654 0.34001,18.10815 0.18277,0.6816 0.75058,1.34031 1.2618,1.4638 1.40236,0.33876 6.09618,-0.1364 10.52125,-1.06508 z"
     id="path210" />
  <path
     style="fill:#ffffff;stroke-width:0.56511"
     d="m 118.76864,308.00513 v -24.60348 l 10.86126,0.25851 c 12.17067,0.28967 14.7964,0.87625 17.80154,3.97677 4.21054,4.34418 4.67057,12.81077 0.93715,17.2477 -0.76388,0.90782 -1.38887,1.80401 -1.38887,1.99154 0,0.18752 1.13301,1.80122 2.51781,3.58599 4.27952,5.51559 4.6705,11.35571 1.10769,16.54575 -3.0223,4.40267 -7.77104,5.58985 -22.38587,5.59644 l -9.45071,0.004 z m 22.51711,17.10543 c 2.03041,-0.97671 4.0013,-4.17013 4.0013,-6.48327 0,-1.08119 -0.53231,-2.8271 -1.18291,-3.87979 -1.85902,-3.00796 -3.85882,-3.716 -11.3691,-4.02531 l -6.63152,-0.27312 v 8.06121 8.06121 l 6.88103,-0.38888 c 3.78456,-0.21388 7.52011,-0.6963 8.3012,-1.07205 z m -1.52937,-21.77289 c 2.04394,-0.78211 3.08866,-2.57927 3.55185,-6.10996 0.34646,-2.64101 0.24506,-3.07856 -1.00269,-4.3263 -1.82005,-1.82005 -4.6171,-2.58382 -10.98297,-2.99903 l -5.21905,-0.3404 v 7.5023 7.50231 l 6.06538,-0.32325 c 3.33596,-0.17778 6.75033,-0.58533 7.58748,-0.90567 z"
     id="path212" />
  <path
     style="fill:#ffffff;stroke-width:0.56511"
     d="M 73.630914,308.03826 V 283.4679 l 14.623705,0.16777 c 8.043037,0.0923 14.738851,0.29473 14.879581,0.44989 0.14073,0.15516 0.43091,1.48813 0.64485,2.96216 l 0.38897,2.68005 H 92.566908 80.965794 v 6.69173 6.69172 l 3.244274,0.36658 c 1.784351,0.20163 6.735395,0.53006 11.002321,0.72986 8.635611,0.40436 8.293911,0.19058 7.405411,4.63312 l -0.35264,1.76319 H 91.615476 80.965794 v 7.8991 7.8991 h 12.061457 12.061459 l -0.29434,2.68006 c -0.16189,1.47403 -0.57503,2.86659 -0.91808,3.09458 -0.34306,0.22799 -7.288611,0.41841 -15.43456,0.42316 l -14.810816,0.009 z"
     id="path214" />
  <path
     style="fill:#ffffff;stroke-width:0.56511"
     d="m 17.490868,333.20366 c -2.339906,-0.9577 -3.256799,-3.07535 -7.128755,-16.46454 -4.0271275,-13.92577 -8.9515591,-31.95409 -8.9515591,-32.77161 0,-0.75535 7.141714,-0.51652 7.7480762,0.2591 0.3032521,0.38791 2.4288729,8.19532 4.7236029,17.34982 2.294728,9.15449 4.249654,16.76413 4.344279,16.9103 0.565451,0.8735 2.056295,-3.62277 7.197205,-21.70619 1.76442,-6.20643 3.439692,-11.72875 3.722827,-12.27182 0.407446,-0.78149 1.25641,-0.98738 4.071367,-0.98738 h 3.556576 l 3.540682,12.27182 c 5.254931,18.21331 6.371796,21.62928 7.002986,21.41888 0.763269,-0.25442 2.491482,-6.00352 6.361204,-21.16128 l 3.211231,-12.57843 3.433221,0.16556 3.433226,0.16556 -0.163703,1.69266 c -0.295359,3.05398 -10.895109,41.84157 -12.593847,46.08457 -0.797541,1.99205 -1.57781,2.2209 -4.832968,1.4175 l -2.721459,-0.67168 -2.714162,-9.02754 c -1.492789,-4.96515 -3.598281,-12.44486 -4.67887,-16.62156 -1.080589,-4.17671 -2.074702,-7.70401 -2.209141,-7.83845 -0.691326,-0.69133 -1.939169,1.49399 -2.780064,4.86867 -2.321313,9.31587 -8.324499,27.89546 -9.474827,29.32416 -0.637357,0.79159 -2.402142,0.86563 -4.097128,0.17188 z"
     id="path216" />
</svg>
